<svg height="512pt" viewBox="-104 0 512 512.002" width="512pt" xmlns="http://www.w3.org/2000/svg"><path d="m204.414062 52.703125c0-29.109375-23.589843-52.703125-52.695312-52.703125-29.101562 0-52.695312 23.59375-52.695312 52.703125 0 29.105469 23.59375 52.699219 52.695312 52.699219 29.105469 0 52.695312-23.59375 52.695312-52.699219zm0 0" fill="#ffdd48"/><path d="m151.71875 105.40625v-105.40234375c29.105469 0 52.695312 23.58984375 52.695312 52.69531275s-23.589843 52.707031-52.695312 52.707031zm0 0" fill="#fcbe00"/><path d="m303.4375 434.109375c0 22.992187-17.316406 43.617187-48.757812 58.09375-27.75 12.765625-64.316407 19.800781-102.960938 19.800781s-75.210938-7.035156-102.960938-19.800781c-31.441406-14.476563-48.757812-35.101563-48.757812-58.09375s17.316406-43.632813 48.757812-58.105469c27.75-12.769531 64.316407-19.800781 102.960938-19.800781s75.210938 7.03125 102.960938 19.800781c31.441406 14.472656 48.757812 35.113282 48.757812 58.105469zm0 0" fill="#ff623f"/><path d="m303.4375 434.109375c0 22.992187-17.316406 43.617187-48.757812 58.09375-27.75 12.765625-64.316407 19.800781-102.960938 19.800781v-155.800781c38.644531 0 75.210938 7.035156 102.960938 19.800781 31.441406 14.472656 48.757812 35.113282 48.757812 58.105469zm0 0" fill="#e30020"/><path d="m253.960938 154.484375v134.320313h-43.980469v145.304687h-116.523438v-145.304687h-43.980469v-134.320313c0-29.1875 23.742188-52.929687 52.925782-52.929687h98.632812c29.1875 0 52.925782 23.742187 52.925782 52.929687zm0 0" fill="#00da78"/><path d="m253.960938 154.484375v134.320313h-43.980469v145.304687h-58.261719v-332.554687h49.316406c29.1875 0 52.925782 23.742187 52.925782 52.929687zm0 0" fill="#00b77a"/></svg>