<svg height="512pt" viewBox="-66 0 512 512" width="512pt" xmlns="http://www.w3.org/2000/svg"><path d="m380.773438 190.394531c0 57.550781-29.421876 102.441407-62.191407 147.140625l-128.195312 174.105469-.28125.359375-127.917969-174.464844c-32.769531-44.699218-62.1875-89.589844-62.1875-147.148437 0-104.976563 85.398438-190.386719 190.367188-190.386719h.777343c104.628907.421875 189.628907 85.667969 189.628907 190.394531zm0 0" fill="#ff623f"/><path d="m314.113281 190.386719c0 68.226562-55.507812 123.726562-123.726562 123.726562s-123.726563-55.5-123.726563-123.726562c0-68.21875 55.507813-123.71875 123.726563-123.71875s123.726562 55.5 123.726562 123.71875zm0 0" fill="#fff"/><path d="m380.773438 190.394531c0 57.550781-29.421876 102.441407-62.191407 147.140625l-128.195312 174.105469v-511.640625h.757812c104.628907.421875 189.628907 85.667969 189.628907 190.394531zm0 0" fill="#e30020"/><path d="m314.113281 190.386719c0 68.226562-55.507812 123.726562-123.726562 123.726562v-247.445312c68.21875 0 123.726562 55.5 123.726562 123.71875zm0 0" fill="#d6d6d8"/><path d="m243.714844 175.386719v30h-38.328125v38.339843h-30v-38.339843h-38.328125v-30h38.328125v-38.328125h30v38.328125zm0 0" fill="#0087ff"/><path d="m243.714844 175.386719v30h-38.328125v38.339843h-15v-106.667968h15v38.328125zm0 0" fill="#4b5be4"/></svg>